<svg width="804" height="167" viewBox="0 0 804 167" fill="none" xmlns="http://www.w3.org/2000/svg">
<path d="M276.697 131.44C272.185 131.44 267.481 130.24 262.585 127.84C257.689 125.344 252.073 120.784 245.737 114.16L215.497 82.48V130H202.537V52.24C202.537 47.344 201.865 43.744 200.521 41.44C199.177 39.04 196.489 37.84 192.457 37.84H189.577V34.96H202.537C206.089 34.96 208.729 35.44 210.457 36.4C212.281 37.264 213.577 38.896 214.345 41.296C215.113 43.696 215.497 47.344 215.497 52.24V80.32L245.737 50.08L248.617 47.056C251.305 44.272 253.561 42.112 255.385 40.576C257.209 38.944 259.369 37.6 261.865 36.544C264.361 35.488 267.145 34.96 270.217 34.96H277.417V38.56C273.385 38.56 269.881 39.28 266.905 40.72C263.929 42.064 260.473 44.704 256.537 48.64L228.457 76.72L261.577 111.28C265.801 115.6 270.073 119.248 274.393 122.224C278.713 125.104 282.601 126.784 286.057 127.264V130C283.177 130.96 280.057 131.44 276.697 131.44ZM363.207 131.44C358.215 131.44 353.799 129.952 349.959 126.976C346.215 123.904 342.039 118.432 337.431 110.56L323.031 86.08H312.951V130H299.991V52.24C299.991 47.344 299.319 43.744 297.975 41.44C296.631 39.04 293.943 37.84 289.911 37.84H287.031V34.96H324.471C333.495 34.96 341.751 36.784 349.239 40.432C356.727 43.984 360.471 50.752 360.471 60.736C360.471 68.224 358.263 73.84 353.847 77.584C349.527 81.232 344.055 83.824 337.431 85.36L352.551 110.56C356.103 116.512 359.271 120.688 362.055 123.088C364.935 125.392 368.247 126.736 371.991 127.12V130C371.127 130.384 369.879 130.72 368.247 131.008C366.615 131.296 364.935 131.44 363.207 131.44ZM323.319 81.04C326.487 81.04 329.847 80.32 333.399 78.88C336.951 77.44 339.927 75.184 342.327 72.112C344.823 69.04 346.071 65.2 346.071 60.592C346.071 55.984 344.823 52.144 342.327 49.072C339.831 46 336.807 43.744 333.255 42.304C329.799 40.768 326.487 40 323.319 40C320.247 40 316.791 40.48 312.951 41.44V81.04H323.319ZM409.455 90.688L384.975 53.68C382.479 50.128 380.367 47.344 378.639 45.328C376.911 43.312 374.847 41.632 372.447 40.288C370.143 38.848 367.359 38.032 364.095 37.84V34.96H377.055C381.855 34.96 385.887 36.4 389.151 39.28C392.415 42.064 395.583 45.904 398.655 50.8L419.535 83.2L449.631 34.96H456.111L422.415 89.68V130H409.455V90.688ZM473.381 52.24C473.381 47.344 472.709 43.744 471.365 41.44C470.021 39.04 467.333 37.84 463.301 37.84H460.421V34.96H497.861C507.077 34.96 515.381 36.928 522.773 40.864C530.165 44.8 533.861 52.432 533.861 63.76C533.861 71.248 531.941 77.008 528.101 81.04C524.261 85.072 519.941 87.76 515.141 89.104C510.437 90.448 506.117 91.12 502.181 91.12H486.341V130H473.381V52.24ZM497.141 86.08C500.213 86.08 503.477 85.312 506.933 83.776C510.389 82.144 513.317 79.6 515.717 76.144C518.213 72.688 519.461 68.32 519.461 63.04C519.461 57.76 518.213 53.392 515.717 49.936C513.317 46.48 510.389 43.984 506.933 42.448C503.477 40.816 500.213 40 497.141 40C493.781 40 490.181 40.48 486.341 41.44V86.08H497.141ZM574.434 40.72H561.474C549.474 40.72 543.474 46.24 543.474 57.28H540.594V46.48C540.594 38.8 544.674 34.96 552.834 34.96H619.794V40.72H587.394V130H574.434V40.72ZM666.881 132.88C657.953 132.88 650.081 130.672 643.265 126.256C636.545 121.84 631.361 115.792 627.713 108.112C624.065 100.432 622.241 91.888 622.241 82.48C622.241 73.072 624.065 64.528 627.713 56.848C631.361 49.168 636.545 43.12 643.265 38.704C650.081 34.288 657.953 32.08 666.881 32.08C675.809 32.08 683.633 34.288 690.353 38.704C697.169 43.12 702.401 49.168 706.049 56.848C709.697 64.528 711.521 73.072 711.521 82.48C711.521 91.888 709.697 100.432 706.049 108.112C702.401 115.792 697.169 121.84 690.353 126.256C683.633 130.672 675.809 132.88 666.881 132.88ZM666.881 127.12C673.121 127.12 678.497 125.296 683.009 121.648C687.617 118 691.121 112.864 693.521 106.24C695.921 99.52 697.121 91.6 697.121 82.48C697.121 73.36 695.921 65.488 693.521 58.864C691.121 52.144 687.617 46.96 683.009 43.312C678.497 39.664 673.121 37.84 666.881 37.84C660.641 37.84 655.217 39.664 650.609 43.312C646.097 46.96 642.641 52.144 640.241 58.864C637.841 65.488 636.641 73.36 636.641 82.48C636.641 91.6 637.841 99.52 640.241 106.24C642.641 112.864 646.097 118 650.609 121.648C655.217 125.296 660.641 127.12 666.881 127.12ZM738.748 54.4V130H732.988V52.24C732.988 47.632 731.98 44.08 729.964 41.584C728.044 39.088 724.732 37.84 720.028 37.84H718.588V34.96H727.948C732.364 34.96 736.108 35.68 739.18 37.12C742.252 38.56 744.988 40.72 747.388 43.6L797.788 106.24V34.96H803.548V131.44H800.668L738.748 54.4Z" fill="url(#paint0_linear_0_1)"/>
<path d="M67.5 0L134.617 41.75V125.25L67.5 167L0.383034 125.25V41.75L67.5 0Z" fill="url(#paint1_linear_0_1)"/>
<defs>
<linearGradient id="paint0_linear_0_1" x1="502" y1="1.13116e-05" x2="527" y2="168" gradientUnits="userSpaceOnUse">
<stop stop-color="#FF0000"/>
<stop offset="1" stop-color="#0029FF"/>
</linearGradient>
<linearGradient id="paint1_linear_0_1" x1="108.5" y1="104" x2="65.6956" y2="165.749" gradientUnits="userSpaceOnUse">
<stop stop-color="white"/>
<stop offset="1" stop-color="white" stop-opacity="0.27"/>
</linearGradient>
</defs>
</svg>
